/* XPM */
static char *cforciao[]={
"24 24 14 1",
". c None",
"c c #800080",
"g c #850e85",
"k c #8b1b8b",
"i c #912991",
"e c #973797",
"h c #9e6e9e",
"j c #a860a8",
"d c #ae6eae",
"b c #b37cb3",
"f c #b989b9",
"a c #c5a5c5",
"l c #cab2ca",
"# c #d0c0d0",
".......#abccccba#.......",
"......decccccccced......",
"....feccccccccccccef....",
"...bccccccccccccccccb...",
"..fccccccceddecccccccf..",
"..ecccccba....abcccccgf.",
".dccccgh........hgccij..",
"#ecccch..........hkd#...",
"accccb............l.....",
"bcccca..................",
"cccce...................",
"ccccd...................",
"ccccd...................",
"cccce...................",
"bcccca..................",
"accccb............l.....",
"#ecccch..........hkd#...",
".dccccgh........hgcci...",
"..ecccccba....abcccccgf.",
"..fccccccceddecccccccf..",
"...bccccccccccccccccb...",
"....feccccccccccccef....",
"......decccccccced......",
".......#abccccba#......."};
