/* XPM */
static char *ciaomanuals[]={
"24 24 31 1",
". c None",
"g c #000000",
"y c #373737",
"x c #658b5e",
"w c #6e6e6e",
"C c #767637",
"r c #7b7b1b",
"v c #7e6e7e",
"p c #7f7f00",
"c c #800080",
"j c #850e85",
"t c #898989",
"n c #8b1b8b",
"l c #912991",
"A c #93b28d",
"e c #973797",
"B c #9d9d0e",
"k c #9e6e9e",
"o c #a5a5a5",
"m c #a860a8",
"d c #ae6eae",
"b c #b37cb3",
"h c #b3c8af",
"f c #b989b9",
"z c #bfbf00",
"a c #c5a5c5",
"s c #cab2ca",
"# c #d0c0d0",
"i c #e0e9df",
"q c #efef00",
"u c #ffff00",
".......#abccccba#.......",
"......decccccccced......",
"....feccccccccccccef....",
"...bccccccccccccccccb...",
"..fcccccccgggggccccccf..",
"..ecccccbghiiiigcccccjf.",
".dccccjkgiiiiiiigjcclm..",
"#ecccckghihggghihgnd#...",
"accccbopgigqqrgiigs.....",
"bcccca.tiguuuugihg......",
"ccccevwwruuuugiixgt.....",
"ccccdyzzquuugiiAgzy.....",
"ccccdyzzquugiiAgzzy.....",
"ccccevwwrugAiAgrwwt.....",
"bcccca.tBugiAguBt.......",
"accccbopuBggggBupos.....",
"#ecccckCptwzzwtpCknd#...",
".dccccjko.wggw.okjccl...",
"..ecccccbagihgabcccccjf.",
"..fcccccccghAgcccccccf..",
"...bcccccccggcccccccb...",
"....feccccccccccccef....",
"......decccccccced......",
".......#abccccba#......."};
