/* XPM */
static char *lpdocviewer[]={
"24 24 10 1",
". c None",
"# c #008000",
"a c #00c000",
"b c #010101",
"c c #46463e",
"g c #5c5c57",
"h c #878779",
"d c #a9a997",
"f c #ceceb8",
"e c #e7e7d1",
".##...####..a#..........",
".##...####..a#..........",
".##...##.#.###.###.###..",
".##...####.###b###.###..",
".##...####.#.#c#.#.#a...",
".####.##bde###e###.###..",
".####.##fee###e###.###..",
"....bggeffeeeeeec.......",
"....becdfeeeeeeeeb......",
"....beecffeeeeeeedb.....",
"....beechfdcbbcfeeb.....",
"....begdfdcdffhcfeeb....",
"....bbdfecdeefdhceefb...",
"....bgeeebf.fdddbeeeeb..",
"....bdeeebfedddhbeeehb..",
".....beeechdddhgceebb...",
".....bdeedchddgbbeb.....",
"......geeedcbbcgbb......",
"......beeeeeeefbbbb.....",
".......beeeeedb..bbb....",
".......bdeefcb....bbb...",
"........bedb.......bb...",
".........bb.............",
"........................"};
